<mxfile host="Electron" agent="Mozilla/5.0 (Windows NT 10.0; Win64; x64) AppleWebKit/537.36 (KHTML, like Gecko) draw.io/26.0.16 Chrome/132.0.6834.196 Electron/34.2.0 Safari/537.36" version="26.0.16">
  <diagram name="Page-1" id="2YBvvXClWsGukQMizWep">
    <mxGraphModel dx="1050" dy="621" grid="1" gridSize="10" guides="1" tooltips="1" connect="1" arrows="1" fold="1" page="1" pageScale="1" pageWidth="850" pageHeight="1100" math="0" shadow="0">
      <root>
        <mxCell id="0" />
        <mxCell id="1" parent="0" />
        <mxCell id="uIJRzmWlYiO0bU59zbRj-7" value="" style="shape=umlLifeline;perimeter=lifelinePerimeter;whiteSpace=wrap;html=1;container=1;dropTarget=0;collapsible=0;recursiveResize=0;outlineConnect=0;portConstraint=eastwest;newEdgeStyle={&quot;curved&quot;:0,&quot;rounded&quot;:0};participant=umlActor;" parent="1" vertex="1">
          <mxGeometry x="110" y="150" width="20" height="300" as="geometry" />
        </mxCell>
        <mxCell id="uIJRzmWlYiO0bU59zbRj-21" value="" style="html=1;points=[[0,0,0,0,5],[0,1,0,0,-5],[1,0,0,0,5],[1,1,0,0,-5]];perimeter=orthogonalPerimeter;outlineConnect=0;targetShapes=umlLifeline;portConstraint=eastwest;newEdgeStyle={&quot;curved&quot;:0,&quot;rounded&quot;:0};" parent="uIJRzmWlYiO0bU59zbRj-7" vertex="1">
          <mxGeometry x="5" y="60" width="10" height="200" as="geometry" />
        </mxCell>
        <mxCell id="uIJRzmWlYiO0bU59zbRj-8" value="" style="shape=umlLifeline;perimeter=lifelinePerimeter;whiteSpace=wrap;html=1;container=1;dropTarget=0;collapsible=0;recursiveResize=0;outlineConnect=0;portConstraint=eastwest;newEdgeStyle={&quot;curved&quot;:0,&quot;rounded&quot;:0};participant=umlBoundary;" parent="1" vertex="1">
          <mxGeometry x="300" y="150" width="50" height="300" as="geometry" />
        </mxCell>
        <mxCell id="uIJRzmWlYiO0bU59zbRj-22" value="" style="html=1;points=[[0,0,0,0,5],[0,1,0,0,-5],[1,0,0,0,5],[1,1,0,0,-5]];perimeter=orthogonalPerimeter;outlineConnect=0;targetShapes=umlLifeline;portConstraint=eastwest;newEdgeStyle={&quot;curved&quot;:0,&quot;rounded&quot;:0};" parent="uIJRzmWlYiO0bU59zbRj-8" vertex="1">
          <mxGeometry x="20" y="60" width="10" height="200" as="geometry" />
        </mxCell>
        <mxCell id="uIJRzmWlYiO0bU59zbRj-9" value="" style="shape=umlLifeline;perimeter=lifelinePerimeter;whiteSpace=wrap;html=1;container=1;dropTarget=0;collapsible=0;recursiveResize=0;outlineConnect=0;portConstraint=eastwest;newEdgeStyle={&quot;curved&quot;:0,&quot;rounded&quot;:0};participant=umlControl;" parent="1" vertex="1">
          <mxGeometry x="500" y="150" width="40" height="300" as="geometry" />
        </mxCell>
        <mxCell id="uIJRzmWlYiO0bU59zbRj-23" value="" style="html=1;points=[[0,0,0,0,5],[0,1,0,0,-5],[1,0,0,0,5],[1,1,0,0,-5]];perimeter=orthogonalPerimeter;outlineConnect=0;targetShapes=umlLifeline;portConstraint=eastwest;newEdgeStyle={&quot;curved&quot;:0,&quot;rounded&quot;:0};" parent="uIJRzmWlYiO0bU59zbRj-9" vertex="1">
          <mxGeometry x="15" y="120" width="10" height="100" as="geometry" />
        </mxCell>
        <mxCell id="uIJRzmWlYiO0bU59zbRj-10" value="" style="shape=umlLifeline;perimeter=lifelinePerimeter;whiteSpace=wrap;html=1;container=1;dropTarget=0;collapsible=0;recursiveResize=0;outlineConnect=0;portConstraint=eastwest;newEdgeStyle={&quot;curved&quot;:0,&quot;rounded&quot;:0};participant=umlEntity;" parent="1" vertex="1">
          <mxGeometry x="690" y="150" width="40" height="300" as="geometry" />
        </mxCell>
        <mxCell id="uIJRzmWlYiO0bU59zbRj-24" value="" style="html=1;points=[[0,0,0,0,5],[0,1,0,0,-5],[1,0,0,0,5],[1,1,0,0,-5]];perimeter=orthogonalPerimeter;outlineConnect=0;targetShapes=umlLifeline;portConstraint=eastwest;newEdgeStyle={&quot;curved&quot;:0,&quot;rounded&quot;:0};" parent="uIJRzmWlYiO0bU59zbRj-10" vertex="1">
          <mxGeometry x="15" y="140" width="10" height="70" as="geometry" />
        </mxCell>
        <mxCell id="uIJRzmWlYiO0bU59zbRj-11" value="Người dùng" style="text;html=1;align=center;verticalAlign=middle;resizable=0;points=[];autosize=1;strokeColor=none;fillColor=none;" parent="1" vertex="1">
          <mxGeometry x="75" y="108" width="90" height="30" as="geometry" />
        </mxCell>
        <mxCell id="uIJRzmWlYiO0bU59zbRj-12" value="&amp;lt;&amp;lt;boundery&amp;gt;&amp;gt;&lt;br&gt;&lt;div&gt;GiaoDiện&lt;/div&gt;" style="text;html=1;align=center;verticalAlign=middle;resizable=0;points=[];autosize=1;strokeColor=none;fillColor=none;" parent="1" vertex="1">
          <mxGeometry x="275" y="108" width="100" height="40" as="geometry" />
        </mxCell>
        <mxCell id="uIJRzmWlYiO0bU59zbRj-13" value="&amp;lt;&amp;lt;boundery&amp;gt;&amp;gt;&lt;br&gt;&lt;div&gt;GiaoDiện&lt;/div&gt;" style="text;html=1;align=center;verticalAlign=middle;resizable=0;points=[];autosize=1;strokeColor=none;fillColor=none;" parent="1" vertex="1">
          <mxGeometry x="470" y="108" width="100" height="40" as="geometry" />
        </mxCell>
        <mxCell id="uIJRzmWlYiO0bU59zbRj-14" value="&amp;lt;&amp;lt;entity&amp;gt;&amp;gt;&lt;div&gt;Database&lt;/div&gt;" style="text;html=1;align=center;verticalAlign=middle;resizable=0;points=[];autosize=1;strokeColor=none;fillColor=none;" parent="1" vertex="1">
          <mxGeometry x="670" y="108" width="80" height="40" as="geometry" />
        </mxCell>
        <mxCell id="uIJRzmWlYiO0bU59zbRj-25" value="Truy cập danh sách phim" style="html=1;verticalAlign=bottom;endArrow=block;curved=0;rounded=0;" parent="1" edge="1">
          <mxGeometry width="80" relative="1" as="geometry">
            <mxPoint x="125" y="228.99999999999994" as="sourcePoint" />
            <mxPoint x="320" y="228.99999999999994" as="targetPoint" />
          </mxGeometry>
        </mxCell>
        <mxCell id="uIJRzmWlYiO0bU59zbRj-26" value="Chọn phim cần xem" style="html=1;verticalAlign=bottom;endArrow=block;curved=0;rounded=0;" parent="1" edge="1">
          <mxGeometry width="80" relative="1" as="geometry">
            <mxPoint x="125" y="269.99999999999994" as="sourcePoint" />
            <mxPoint x="320" y="269.99999999999994" as="targetPoint" />
          </mxGeometry>
        </mxCell>
        <mxCell id="uIJRzmWlYiO0bU59zbRj-27" value="Gửi ID của phim" style="html=1;verticalAlign=bottom;endArrow=block;curved=0;rounded=0;" parent="1" edge="1">
          <mxGeometry width="80" relative="1" as="geometry">
            <mxPoint x="330" y="285.99999999999994" as="sourcePoint" />
            <mxPoint x="515" y="285.99999999999994" as="targetPoint" />
          </mxGeometry>
        </mxCell>
        <mxCell id="uIJRzmWlYiO0bU59zbRj-28" value="Lấy thông tin phim" style="html=1;verticalAlign=bottom;endArrow=block;curved=0;rounded=0;" parent="1" source="uIJRzmWlYiO0bU59zbRj-23" edge="1">
          <mxGeometry width="80" relative="1" as="geometry">
            <mxPoint x="520" y="309.99999999999994" as="sourcePoint" />
            <mxPoint x="705" y="309.99999999999994" as="targetPoint" />
          </mxGeometry>
        </mxCell>
        <mxCell id="uIJRzmWlYiO0bU59zbRj-29" value="Thông tin phim" style="html=1;verticalAlign=bottom;endArrow=open;dashed=1;endSize=8;curved=0;rounded=0;" parent="1" edge="1">
          <mxGeometry relative="1" as="geometry">
            <mxPoint x="705" y="343.5" as="sourcePoint" />
            <mxPoint x="525" y="343.5" as="targetPoint" />
          </mxGeometry>
        </mxCell>
        <mxCell id="uIJRzmWlYiO0bU59zbRj-31" value="Hiển thị thông tin phim" style="html=1;verticalAlign=bottom;endArrow=open;dashed=1;endSize=8;curved=0;rounded=0;" parent="1" target="uIJRzmWlYiO0bU59zbRj-21" edge="1">
          <mxGeometry relative="1" as="geometry">
            <mxPoint x="320" y="385.5" as="sourcePoint" />
            <mxPoint x="135" y="386" as="targetPoint" />
          </mxGeometry>
        </mxCell>
        <mxCell id="uIJRzmWlYiO0bU59zbRj-32" value="Xem thông tin phim" style="shape=umlFrame;whiteSpace=wrap;html=1;pointerEvents=0;width=140;height=30;" parent="1" vertex="1">
          <mxGeometry x="50" y="50" width="720" height="420" as="geometry" />
        </mxCell>
      </root>
    </mxGraphModel>
  </diagram>
</mxfile>
